<?xml version="1.0" standalone="no"?>
<!DOCTYPE svg PUBLIC "-//W3C//DTD SVG 20010904//EN"
 "http://www.w3.org/TR/2001/REC-SVG-20010904/DTD/svg10.dtd">
<svg version="1.0" xmlns="http://www.w3.org/2000/svg"
 width="475.000000pt" height="264.000000pt" viewBox="0 0 475.000000 264.000000"
 preserveAspectRatio="xMidYMid meet">

<g transform="translate(0.000000,264.000000) scale(0.100000,-0.100000)"
fill="#000000" stroke="none">
<path d="M1657 1733 c-16 -4 -17 -36 -15 -541 l3 -537 105 -2 c62 -1 110 3
117 9 10 8 13 98 13 409 0 220 4 399 8 399 10 0 42 -33 42 -44 0 -4 7 -14 16
-23 22 -23 114 -160 114 -172 0 -5 3 -11 8 -13 12 -5 82 -105 82 -117 0 -6 5
-11 10 -11 6 0 10 -6 10 -13 0 -21 48 -43 68 -31 9 6 64 79 122 163 58 84 112
156 120 161 13 8 16 -37 20 -353 l5 -362 118 -2 117 -2 0 539 c0 421 -3 539
-12 542 -7 2 -58 5 -114 7 l-101 3 -34 -44 c-19 -23 -37 -44 -41 -46 -5 -2 -8
-8 -8 -14 0 -5 -50 -79 -111 -164 -71 -99 -116 -154 -128 -154 -11 0 -64 65
-151 188 -73 103 -142 197 -153 210 -19 20 -29 22 -116 21 -53 -1 -104 -3
-114 -6z"/>
<path d="M3200 1730 l-335 -5 0 -535 0 -535 338 -2 338 -2 -5 30 c-9 59 -82
137 -136 146 -8 1 -77 5 -153 9 -76 4 -141 12 -144 17 -5 8 -8 236 -4 290 1 4
66 7 146 7 80 0 145 3 145 8 4 67 4 125 -1 127 -3 2 -69 5 -147 6 -99 1 -142
4 -143 12 0 21 -1 212 0 229 1 16 16 18 161 17 151 0 163 1 193 23 43 30 64
56 77 95 25 72 44 69 -330 63z"/>
<path d="M3683 1733 c-10 -4 -13 -122 -13 -544 l0 -539 45 0 c83 0 145 37 176
105 17 37 19 73 19 419 l0 379 98 -6 c147 -8 224 -54 280 -167 24 -49 27 -66
26 -155 0 -67 -5 -111 -16 -135 -8 -19 -21 -48 -28 -65 -27 -66 -103 -165
-197 -253 -128 -122 -128 -122 -141 -122 -7 0 -12 -4 -12 -9 0 -27 -274 -174
-410 -221 -36 -12 -72 -26 -82 -30 -16 -9 -240 -74 -288 -84 -14 -3 -65 -14
-115 -25 -49 -10 -109 -21 -132 -25 -22 -3 -52 -8 -65 -10 -25 -6 -181 -23
-318 -34 -114 -9 -650 -9 -775 1 -326 25 -584 68 -875 145 -41 11 -86 23 -100
26 -67 17 234 -119 365 -164 122 -42 354 -107 450 -126 89 -17 125 -24 159
-29 21 -3 48 -7 60 -10 30 -6 104 -15 246 -30 118 -13 640 -14 715 -2 17 3 59
8 95 12 36 3 103 13 150 20 47 8 99 16 115 19 53 8 218 45 275 60 242 68 228
63 380 121 349 133 653 335 811 540 78 101 130 208 148 305 7 38 6 153 -1 185
-31 139 -100 250 -213 345 -46 38 -163 88 -235 99 -64 11 -573 14 -597 4z"/>
</g>
</svg>
