<?xml version="1.0" encoding="UTF-8"?>
<svg version="1.1" xmlns="http://www.w3.org/2000/svg" width="475" height="264">
<path d="M0 0 C0.90419678 0.63240601 0.90419678 0.63240601 1.82666016 1.27758789 C3.23716427 2.29833093 4.59385914 3.39272069 5.9375 4.5 C5.9375 5.16 5.9375 5.82 5.9375 6.5 C2.36099391 5.88714704 -0.73669928 4.9200418 -4.0703125 3.49609375 C-49.31631297 -15.44452853 -97.39741565 -23.79066532 -146.0625 -27.5 C-147.45154541 -27.60803955 -147.45154541 -27.60803955 -148.86865234 -27.71826172 C-217.12255518 -32.77063191 -294.82263526 -24.91566921 -348.875 20.875 C-365.39814832 35.36786138 -378.47918958 53.46503348 -380.265625 76.0703125 C-380.46358087 86.85890752 -378.10679742 96.50343015 -372.0625 105.5 C-371.48628906 106.38751953 -371.48628906 106.38751953 -370.8984375 107.29296875 C-361.35265167 120.08900681 -343.16015708 126.23466495 -328.203125 129.00390625 C-320.57370769 130.07315217 -312.7389746 129.91842419 -305.0625 129.5 C-303.72393974 128.39046768 -303.72393974 128.39046768 -303.98071289 125.57250977 C-303.9986792 124.29174561 -304.01664551 123.01098145 -304.03515625 121.69140625 C-304.04780292 120.2910181 -304.06016385 118.89062734 -304.07226562 117.49023438 C-304.09710531 115.2736001 -304.1250813 113.05709914 -304.15844727 110.84057617 C-304.18859073 108.70751067 -304.20640727 106.5746164 -304.22265625 104.44140625 C-304.23949463 103.15951416 -304.25633301 101.87762207 -304.27368164 100.55688477 C-304.0625 97.5 -304.0625 97.5 -302.0625 95.5 C-299.64819336 95.25708008 -299.64819336 95.25708008 -296.65234375 95.26953125 C-295.58048828 95.27146484 -294.50863281 95.27339844 -293.40429688 95.27539062 C-292.28087891 95.28763672 -291.15746094 95.29988281 -290 95.3125 C-288.30907227 95.3134668 -288.30907227 95.3134668 -286.58398438 95.31445312 C-278.20263317 95.35986683 -278.20263317 95.35986683 -277.0625 96.5 C-276.69723279 102.26862611 -276.62009926 108.03895798 -276.54760742 113.81787109 C-276.51598004 115.76579326 -276.46823816 117.71352325 -276.40405273 119.66064453 C-276.31275717 122.4672084 -276.27399114 125.27030016 -276.24609375 128.078125 C-276.20794052 128.94600647 -276.16978729 129.81388794 -276.13047791 130.70806885 C-276.13851998 133.21330513 -276.23175776 135.1335499 -277.0625 137.5 C-279.46937457 139.77911268 -282.05367083 141.15247336 -285.0625 142.5 C-285.95195312 142.92667969 -286.84140625 143.35335937 -287.7578125 143.79296875 C-300.25254392 148.39311906 -313.25811064 148.91188262 -326.4375 148.875 C-327.17484375 148.87445618 -327.9121875 148.87391235 -328.671875 148.87335205 C-358.17177234 148.77401242 -388.50309047 143.02277691 -410.54882812 122.02978516 C-422.37208966 110.0806631 -430.48143546 95.47391449 -430.4375 78.4375 C-430.31254337 58.63283492 -422.20525278 41.16802389 -409.0625 26.5 C-408.01642578 25.27603516 -408.01642578 25.27603516 -406.94921875 24.02734375 C-391.88697288 6.7178001 -373.36196396 -6.07274456 -353.0625 -16.5 C-352.28664551 -16.90814941 -351.51079102 -17.31629883 -350.71142578 -17.73681641 C-318.20043172 -34.72472217 -282.12378073 -42.46627432 -246.0625 -47.5 C-244.9084668 -47.66661133 -243.75443359 -47.83322266 -242.56542969 -48.00488281 C-162.15073485 -59.20773762 -67.60821824 -47.43967011 0 0 Z " fill="#EC7736" transform="translate(430.0625,50.5)"/>
<path d="M0 0 C1.09584412 -0.00960754 2.19168823 -0.01921509 3.32073975 -0.02911377 C4.51330383 -0.03336365 5.70586792 -0.03761353 6.93457031 -0.04199219 C8.16371155 -0.04769226 9.39285278 -0.05339233 10.65924072 -0.05926514 C13.27200456 -0.06873242 15.88478043 -0.07525594 18.49755859 -0.07910156 C22.45459421 -0.08559186 26.41125063 -0.1197 30.36816406 -0.15136719 C32.91112974 -0.15790541 35.45409913 -0.16315265 37.99707031 -0.16699219 C39.16534363 -0.17933899 40.33361694 -0.19168579 41.53729248 -0.20440674 C57.67924331 -0.16167509 72.89284542 3.65836865 84.86035156 15.04394531 C96.21359059 27.67937766 102.10536718 41.94691077 101.76269531 59.16113281 C100.04628682 82.94995234 84.94382774 100.50656733 67.85644531 115.62988281 C56.66147667 124.78940261 44.597937 132.52284013 31.76269531 139.16113281 C31.07079102 139.52271484 30.37888672 139.88429687 29.66601562 140.25683594 C-10.00745095 160.73462888 -55.06249056 170.23538826 -99.23730469 174.16113281 C-100.30078125 174.2568457 -101.36425781 174.35255859 -102.45996094 174.45117188 C-166.63238979 179.65585433 -235.32115794 169.79987406 -293.48730469 141.66113281 C-294.12770691 141.35190887 -294.76810913 141.04268494 -295.42791748 140.72409058 C-306.03494622 135.56584974 -306.03494622 135.56584974 -307.23730469 133.16113281 C-300.4111009 133.78911094 -294.13077014 135.47556574 -287.54980469 137.34863281 C-268.28187614 142.65375774 -248.85496932 146.71148488 -229.04980469 149.41113281 C-227.94926758 149.56219482 -226.84873047 149.71325684 -225.71484375 149.86889648 C-204.11225204 152.62280755 -182.49935782 153.54195922 -160.73730469 153.47363281 C-159.52150726 153.47181 -158.30570984 153.46998718 -157.05307007 153.46810913 C-94.10543633 153.3099609 -18.43148497 145.10118901 29.76269531 100.16113281 C30.31296387 99.65855957 30.86323242 99.15598633 31.43017578 98.63818359 C44.06283683 87.01932165 55.08191644 73.14761411 57.20019531 55.52050781 C57.53579616 45.8300333 55.60658841 38.3721233 49.51269531 30.78613281 C42.90536832 23.75252666 35.32927926 22.13578935 26.01269531 21.59863281 C25.3153125 21.55544922 24.61792969 21.51226562 23.89941406 21.46777344 C22.18737609 21.36223685 20.4750597 21.26123372 18.76269531 21.16113281 C18.77157776 22.09550171 18.78046021 23.02987061 18.78961182 23.99255371 C18.87087517 32.8196793 18.93074562 41.6467285 18.969944 50.47414398 C18.9907742 55.01189323 19.01900778 59.54933928 19.06445312 64.08691406 C19.10807466 68.47006693 19.13186674 72.85292908 19.14220428 77.23628235 C19.14956651 78.90436882 19.16394312 80.57244029 19.18561554 82.24040222 C19.3883335 98.49596036 19.3883335 98.49596036 14.76269531 105.16113281 C11.415277 108.50855112 8.37504617 110.13616596 3.76269531 111.16113281 C0.13269531 111.16113281 -3.49730469 111.16113281 -7.23730469 111.16113281 C-7.23730469 74.86113281 -7.23730469 38.56113281 -7.23730469 1.16113281 C-4.68352624 -0.11575641 -2.85941713 0.02021274 0 0 Z " fill="#744828" transform="translate(373.2373046875,88.8388671875)"/>
<path d="M0 0 C1.03769531 -0.05414063 2.07539063 -0.10828125 3.14453125 -0.1640625 C10.61463035 -0.29762749 10.61463035 -0.29762749 13.62451172 1.81689453 C15.20683777 3.62358407 16.47497517 5.46603182 17.75 7.5 C18.67590599 8.77099259 19.60564494 10.03920114 20.5390625 11.3046875 C21.48798256 12.65893767 22.43317235 14.01580778 23.375 15.375 C24.41395201 16.86075435 25.45301817 18.34642889 26.4921875 19.83203125 C27.02295898 20.59338379 27.55373047 21.35473633 28.10058594 22.13916016 C30.88496077 26.1244924 33.69370026 30.09259203 36.5 34.0625 C37.51573506 35.50122439 38.53137046 36.94001915 39.546875 38.37890625 C40.27390625 39.40886719 41.0009375 40.43882812 41.75 41.5 C45.02225412 40.40924863 45.39173678 39.98511129 47.24609375 37.28125 C47.95173462 36.26575073 47.95173462 36.26575073 48.67163086 35.22973633 C49.17186768 34.49392334 49.67210449 33.75811035 50.1875 33 C51.26029089 31.45173576 52.3332114 29.90356133 53.40625 28.35546875 C53.95667969 27.55544434 54.50710937 26.75541992 55.07421875 25.93115234 C57.75518024 22.04172715 60.46965975 18.17620119 63.1875 14.3125 C63.67081787 13.61898437 64.15413574 12.92546875 64.65209961 12.2109375 C65.57105384 10.90165503 66.50368975 9.60184113 67.45141602 8.31323242 C68.76577142 6.53895196 68.76577142 6.53895196 69.79663086 4.6965332 C70.8671875 3.0390625 70.8671875 3.0390625 73.75 0.5 C77.67156786 -0.24959393 81.46205042 -0.11141061 85.4375 0.0625 C86.49517578 0.08119141 87.55285156 0.09988281 88.64257812 0.11914062 C96.35285672 0.30142836 96.35285672 0.30142836 98.75 1.5 C98.77333029 15.69456042 98.7909134 29.88911787 98.80181217 44.0836935 C98.80704172 50.67404785 98.81414067 57.26438937 98.82543945 63.85473633 C98.83626578 70.20892018 98.84227629 76.56309165 98.84487724 82.91728401 C98.84673195 85.34749611 98.85035343 87.77770749 98.85573006 90.20791435 C98.86293711 93.59882981 98.86399108 96.98969341 98.86352539 100.38061523 C98.86712067 101.39625046 98.87071594 102.41188568 98.87442017 103.45829773 C98.8730455 104.37681519 98.87167084 105.29533264 98.87025452 106.24168396 C98.87117631 107.04456565 98.8720981 107.84744734 98.87304783 108.67465878 C98.75 110.5 98.75 110.5 97.75 111.5 C93.94411856 111.75208722 90.12574544 111.68522344 86.3125 111.6875 C85.23677734 111.69974609 84.16105469 111.71199219 83.05273438 111.72460938 C82.02599609 111.72654297 80.99925781 111.72847656 79.94140625 111.73046875 C78.52130249 111.73663208 78.52130249 111.73663208 77.07250977 111.74291992 C74.75 111.5 74.75 111.5 72.75 109.5 C72.4715271 106.63998413 72.4715271 106.63998413 72.43115234 102.93896484 C72.42110672 102.26567642 72.4110611 101.592388 72.40071106 100.8986969 C72.36977818 98.66945259 72.35281632 96.44032891 72.3359375 94.2109375 C72.31723393 92.66678828 72.29766113 91.12264935 72.2772522 89.57852173 C72.2258391 85.51137355 72.18626273 81.4441922 72.14910889 77.37689209 C72.10912657 73.2277398 72.05800798 69.07872658 72.0078125 64.9296875 C71.91094463 56.78655319 71.82657486 48.64335029 71.75 40.5 C71.02047119 41.5636377 70.29094238 42.62727539 69.53930664 43.72314453 C68.55878414 45.15138616 67.57823245 46.57960774 66.59765625 48.0078125 C65.88059509 49.05352417 65.88059509 49.05352417 65.14904785 50.12036133 C61.86675838 54.8993748 58.54514741 59.64864471 55.1875 64.375 C54.77286499 64.95999268 54.35822998 65.54498535 53.93103027 66.14770508 C49.53132932 72.30012506 49.53132932 72.30012506 46.0625 73.1875 C37.70778606 71.45350277 31.62630824 57.57129248 27.125 50.875 C25.65439713 48.69480554 24.18306243 46.51510451 22.7109375 44.3359375 C22.06946777 43.38251465 21.42799805 42.4290918 20.76708984 41.44677734 C18.47383651 38.09655128 16.1187858 34.79719783 13.75 31.5 C13.74191315 32.47274872 13.73382629 33.44549744 13.72549438 34.44772339 C13.64811721 43.60066004 13.56039959 52.7534465 13.46247292 61.90618706 C13.41245857 66.61206979 13.36612917 71.31792951 13.328125 76.02392578 C13.29133687 80.56275093 13.24499496 85.10138588 13.19193649 89.64004898 C13.17335801 91.37441813 13.15826291 93.10882809 13.14665604 94.8432579 C13.12985235 97.26663577 13.10083252 99.68957473 13.06884766 102.11279297 C13.06668747 102.83496002 13.06452728 103.55712708 13.06230164 104.30117798 C12.97810432 109.27189568 12.97810432 109.27189568 10.75 111.5 C8.42749023 111.74291992 8.42749023 111.74291992 5.55859375 111.73046875 C4.53185547 111.72853516 3.50511719 111.72660156 2.44726562 111.72460938 C1.37154297 111.71236328 0.29582031 111.70011719 -0.8125 111.6875 C-1.89208984 111.68685547 -2.97167969 111.68621094 -4.08398438 111.68554688 C-12.10985402 111.64014598 -12.10985402 111.64014598 -13.25 110.5 C-13.34550698 109.08321089 -13.37188483 107.66168759 -13.37025452 106.24168396 C-13.37162918 105.3231665 -13.37300385 104.40464905 -13.37442017 103.45829773 C-13.37082489 102.44266251 -13.36722961 101.42702728 -13.36352539 100.38061523 C-13.36367142 99.31733002 -13.36381744 98.2540448 -13.3639679 97.15853882 C-13.36326825 93.62520342 -13.35547343 90.09192 -13.34765625 86.55859375 C-13.34579225 84.11621632 -13.34436827 81.67383851 -13.34336853 79.23146057 C-13.33954189 72.78865536 -13.32971037 66.34587252 -13.31866455 59.90307617 C-13.30845356 53.33447574 -13.30387158 46.7658717 -13.29882812 40.19726562 C-13.28808823 27.29816751 -13.27120104 14.39908494 -13.25 1.5 C-9.27026324 -0.48986838 -4.37659377 0.09642434 0 0 Z " fill="#744827" transform="translate(176.25,88.5)"/>
<path d="M0 0 C1.22355698 0.00222061 2.44711395 0.00444122 3.70774841 0.00672913 C4.71746201 0.00651009 4.71746201 0.00651009 5.74757385 0.00628662 C7.98229649 0.00698573 10.21693674 0.01477799 12.4516449 0.02259827 C13.99721226 0.02446245 15.54278022 0.02588635 17.08834839 0.02688599 C21.16380941 0.03071112 25.23923502 0.04054135 29.31468201 0.05158997 C33.47035747 0.0618042 37.62603864 0.06638363 41.78172302 0.07142639 C49.94124452 0.08216363 58.10073718 0.09923998 66.26023865 0.12025452 C66.41477109 7.00101501 65.44585067 10.65443583 60.82273865 15.87025452 C56.14692298 19.97584876 53.11902565 20.36516552 46.86961365 20.31556702 C46.165 20.31273712 45.46038635 20.30990723 44.73442078 20.30699158 C42.49285105 20.29583253 40.25168679 20.27073645 38.01023865 20.24525452 C36.48680693 20.23521916 34.96336893 20.22609428 33.43992615 20.21791077 C29.71308328 20.19761206 25.98711268 20.1584571 22.26023865 20.12025452 C22.26023865 28.04025452 22.26023865 35.96025452 22.26023865 44.12025452 C31.83023865 44.12025452 41.40023865 44.12025452 51.26023865 44.12025452 C51.96838927 47.66100764 52.39712942 50.30592066 52.38523865 53.80775452 C52.38910583 54.9582428 52.38910583 54.9582428 52.39305115 56.13197327 C52.26023865 58.12025452 52.26023865 58.12025452 51.26023865 60.12025452 C41.69023865 60.45025452 32.12023865 60.78025452 22.26023865 61.12025452 C22.26023865 70.36025452 22.26023865 79.60025452 22.26023865 89.12025452 C26.34398865 89.08931702 26.34398865 89.08931702 30.51023865 89.05775452 C55.10937703 89.04665583 55.10937703 89.04665583 61.82273865 95.65931702 C65.27532155 99.9554287 65.97394916 103.68075428 66.26023865 109.12025452 C63.45757457 110.52158655 61.14138526 110.24750257 58.0063324 110.24964905 C56.03418762 110.25437729 56.03418762 110.25437729 54.02220154 110.25920105 C52.58071357 110.25741122 51.1392259 110.25536025 49.69773865 110.25306702 C48.2256519 110.25374036 46.75356525 110.25471063 45.28147888 110.25596619 C42.19463544 110.25744175 39.10782092 110.25529314 36.02098083 110.25062561 C32.05958759 110.2449284 28.0982621 110.24820816 24.13687134 110.25419807 C21.09661852 110.2578075 18.05638183 110.25666334 15.01612854 110.25407028 C13.55525199 110.25340207 12.094374 110.25422576 10.63349915 110.25654984 C8.59371467 110.25908255 6.55392508 110.25453945 4.5141449 110.24964905 C3.35213562 110.24885345 2.19012634 110.24805786 0.99290466 110.24723816 C-1.73976135 110.12025452 -1.73976135 110.12025452 -3.73976135 109.12025452 C-3.76309174 95.05607795 -3.7806748 80.99190437 -3.79157352 66.92771244 C-3.79680306 60.39789219 -3.80390197 53.86808489 -3.81520081 47.33827209 C-3.8260272 41.04244293 -3.83203766 34.74662625 -3.8346386 28.4507885 C-3.83649329 26.04290508 -3.84011475 23.63502237 -3.84549141 21.22714424 C-3.85269855 17.86736165 -3.85375243 14.50763142 -3.85328674 11.14784241 C-3.85688202 10.14155792 -3.86047729 9.13527344 -3.86418152 8.09849548 C-3.86280685 7.18839218 -3.86143219 6.27828888 -3.86001587 5.34060669 C-3.86139856 4.14734567 -3.86139856 4.14734567 -3.86280918 2.92997837 C-3.65859292 -0.07352881 -3.03057706 0.1330191 0 0 Z " fill="#734828" transform="translate(288.73976135253906,89.87974548339844)"/>
<path d="M0 0 C0.87454834 0.00523682 1.74909668 0.01047363 2.65014648 0.01586914 C3.59438477 0.0190918 4.53862305 0.02231445 5.51147461 0.02563477 C6.50469727 0.03401367 7.49791992 0.04239258 8.52124023 0.05102539 C9.51833008 0.05553711 10.51541992 0.06004883 11.54272461 0.06469727 C14.01478872 0.07652532 16.48673541 0.0930069 18.95874023 0.11352539 C20.21280161 5.89998183 20.07060936 11.60220655 20.02124023 17.48852539 C20.01672852 18.51075195 20.0122168 19.53297852 20.00756836 20.58618164 C19.99584324 23.09535733 19.979432 25.60441029 19.95874023 28.11352539 C20.79646973 28.13858154 21.63419922 28.1636377 22.49731445 28.18945312 C25.60226279 28.28452896 28.70704204 28.38376564 31.81176758 28.48583984 C33.81768831 28.5505079 35.82376251 28.61035646 37.82983398 28.67016602 C39.08666992 28.71206055 40.34350586 28.75395508 41.63842773 28.79711914 C42.80100098 28.83377686 43.96357422 28.87043457 45.16137695 28.90820312 C47.95874023 29.11352539 47.95874023 29.11352539 49.95874023 30.11352539 C49.98761535 33.75934226 50.00549608 37.40513002 50.02124023 41.05102539 C50.02961914 42.09194336 50.03799805 43.13286133 50.04663086 44.20532227 C50.04985352 45.19467773 50.05307617 46.1840332 50.05639648 47.20336914 C50.0616333 48.11981201 50.06687012 49.03625488 50.07226562 49.98046875 C49.95874023 52.11352539 49.95874023 52.11352539 48.95874023 53.11352539 C46.81315197 53.20128144 44.66469602 53.22047758 42.51733398 53.21118164 C41.2121582 53.20795898 39.90698242 53.20473633 38.56225586 53.20141602 C37.17358334 53.1930594 35.78491146 53.18459444 34.39624023 53.17602539 C33.00366368 53.17101205 31.61108542 53.16644886 30.21850586 53.16235352 C26.79854153 53.15051973 23.37866179 53.13403419 19.95874023 53.11352539 C19.96397705 53.89066895 19.96921387 54.6678125 19.97460938 55.46850586 C19.99534179 58.97517088 20.00838845 62.48182302 20.02124023 65.98852539 C20.02961914 67.2118457 20.03799805 68.43516602 20.04663086 69.69555664 C20.04985352 70.8621582 20.05307617 72.02875977 20.05639648 73.23071289 C20.0616333 74.30949707 20.06687012 75.38828125 20.07226562 76.49975586 C19.95874023 79.11352539 19.95874023 79.11352539 18.95874023 81.11352539 C15.47959083 81.14240353 12.00047193 81.16028226 8.52124023 81.17602539 C7.03140625 81.18859375 7.03140625 81.18859375 5.51147461 81.20141602 C4.09511719 81.20625 4.09511719 81.20625 2.65014648 81.21118164 C1.77559814 81.21641846 0.9010498 81.22165527 0 81.22705078 C-2.04125977 81.11352539 -2.04125977 81.11352539 -3.04125977 80.11352539 C-3.12883979 78.11387557 -3.14822553 76.11116429 -3.13891602 74.10961914 C-3.13641846 73.01576904 -3.1339209 71.92191895 -3.13134766 70.79492188 C-3.12224365 69.39443604 -3.11313965 67.9939502 -3.10375977 66.55102539 C-3.08313477 62.11665039 -3.06250977 57.68227539 -3.04125977 53.11352539 C-11.95125977 53.11352539 -20.86125977 53.11352539 -30.04125977 53.11352539 C-30.06188477 49.33915039 -30.08250977 45.56477539 -30.10375977 41.67602539 C-30.11286377 40.48436768 -30.12196777 39.29270996 -30.13134766 38.06494141 C-30.13384521 37.13351318 -30.13634277 36.20208496 -30.13891602 35.24243164 C-30.14415283 34.28409424 -30.14938965 33.32575684 -30.15478516 32.33837891 C-30.04125977 30.11352539 -30.04125977 30.11352539 -29.04125977 29.11352539 C-27.11458469 29.02604332 -25.18474116 29.00655205 -23.25610352 29.01586914 C-21.50136719 29.02070312 -21.50136719 29.02070312 -19.71118164 29.02563477 C-17.86363281 29.03820312 -17.86363281 29.03820312 -15.97875977 29.05102539 C-14.12541016 29.05779297 -14.12541016 29.05779297 -12.23461914 29.06469727 C-9.1701186 29.07652931 -6.10571255 29.09301366 -3.04125977 29.11352539 C-3.04911499 27.84907593 -3.04911499 27.84907593 -3.05712891 26.55908203 C-3.07413802 23.44124604 -3.08669382 20.32343362 -3.09619141 17.20556641 C-3.10123033 15.85432153 -3.10806154 14.50308213 -3.11669922 13.15185547 C-3.12878396 11.21332105 -3.13395805 9.27474739 -3.13891602 7.33618164 C-3.14415283 6.16837158 -3.14938965 5.00056152 -3.15478516 3.79736328 C-3.00121843 0.16691383 -3.00121843 0.16691383 0 0 Z " fill="#EC7736" transform="translate(103.041259765625,88.886474609375)"/>
<path d="M0 0 C4.58653243 0.65648627 8.53582094 2.4106824 12.6875 4.375 C13.42500488 4.72369141 14.16250977 5.07238281 14.92236328 5.43164062 C27.35346573 11.45979488 40.57838306 18.84091375 51 28 C51 28.66 51 29.32 51 30 C47.42349391 29.38714704 44.32580072 28.4200418 40.9921875 26.99609375 C40.01789795 26.58875 39.0436084 26.18140625 38.03979492 25.76171875 C36.9954126 25.32472656 35.95103027 24.88773438 34.875 24.4375 C22.34451973 19.28648353 9.59070344 15.3857585 -3.46411133 11.80273438 C-5.80262594 11.06247867 -7.84772161 10.16643684 -10 9 C-3.375 7.75 -3.375 7.75 0 10 C0.66 10 1.32 10 2 10 C2.33 9.34 2.66 8.68 3 8 C4.32 8 5.64 8 7 8 C7.66 6.68 8.32 5.36 9 4 C7.88625 3.8453125 7.88625 3.8453125 6.75 3.6875 C3.82985982 2.95746496 2.26812446 1.93210602 0 0 Z " fill="#E67941" transform="translate(385,27)"/>
<path d="M0 0 C1.98 0.99 1.98 0.99 4 2 C4 7.94 4 13.88 4 20 C5.32 20 6.64 20 8 20 C7.67 20.99 7.34 21.98 7 23 C4.9375 23.6875 4.9375 23.6875 3 24 C3 24.66 3 25.32 3 26 C8.94 26.33 14.88 26.66 21 27 C21 19.41 21 11.82 21 4 C20.34 4 19.68 4 19 4 C19.66 2.68 20.32 1.36 21 0 C21.66 0 22.32 0 23 0 C23.02891949 4.29165262 23.04677118 8.58328036 23.0625 12.875 C23.07087891 14.09832031 23.07925781 15.32164062 23.08789062 16.58203125 C23.09272461 18.33193359 23.09272461 18.33193359 23.09765625 20.1171875 C23.10551147 21.73536377 23.10551147 21.73536377 23.11352539 23.38623047 C23 26 23 26 22 28 C18.52085059 28.02887814 15.04173169 28.04675687 11.5625 28.0625 C10.07266602 28.07506836 10.07266602 28.07506836 8.55273438 28.08789062 C7.60849609 28.09111328 6.66425781 28.09433594 5.69140625 28.09765625 C4.37958374 28.10551147 4.37958374 28.10551147 3.04125977 28.11352539 C1 28 1 28 0 27 C-0.08758003 25.00035018 -0.10696576 22.9976389 -0.09765625 20.99609375 C-0.09443359 19.78115234 -0.09121094 18.56621094 -0.08789062 17.31445312 C-0.07951172 16.03505859 -0.07113281 14.75566406 -0.0625 13.4375 C-0.05798828 12.15423828 -0.05347656 10.87097656 -0.04882812 9.54882812 C-0.03699545 6.36583978 -0.02051068 3.18294238 0 0 Z " fill="#E6793C" transform="translate(100,142)"/>
<path d="M0 0 C4.75129589 1.65181771 8.77551556 4.20157166 13 6.875 C13.69867188 7.30941406 14.39734375 7.74382813 15.1171875 8.19140625 C18.9255489 10.5842069 22.65083272 12.97789984 26 16 C26 16.66 26 17.32 26 18 C22.26238442 17.36563794 18.9999172 16.30345132 15.5 14.85546875 C13.92980103 14.21327393 13.92980103 14.21327393 12.32788086 13.55810547 C11.22968018 13.10580566 10.13147949 12.65350586 9 12.1875 C0.42898954 8.70079886 -8.04767133 5.3849146 -17 3 C-17 2.67 -17 2.34 -17 2 C-11.76119922 2.55145271 -7.02649303 3.42922093 -2 5 C-1.34 3.35 -0.68 1.7 0 0 Z " fill="#E67C41" transform="translate(410,39)"/>
<path d="M0 0 C3.97915159 -0.02886984 7.95827653 -0.04675406 11.9375 -0.0625 C13.07380859 -0.07087891 14.21011719 -0.07925781 15.38085938 -0.08789062 C16.46044922 -0.09111328 17.54003906 -0.09433594 18.65234375 -0.09765625 C20.15269165 -0.10551147 20.15269165 -0.10551147 21.68334961 -0.11352539 C24 0 24 0 25 1 C25.08790975 3.29151417 25.10694038 5.58572524 25.09765625 7.87890625 C25.0962413 8.5655687 25.09482635 9.25223114 25.09336853 9.95970154 C25.08775479 12.16067801 25.07520007 14.36155409 25.0625 16.5625 C25.05748676 18.05143083 25.05292355 19.54036324 25.04882812 21.02929688 C25.03778093 24.68623075 25.02050713 28.34310558 25 32 C24.34 32 23.68 32 23 32 C22.67 24.74 22.34 17.48 22 10 C21.34 10 20.68 10 20 10 C20 9.34 20 8.68 20 8 C19.34 8 18.68 8 18 8 C18 6.02 18 4.04 18 2 C12.39 1.67 6.78 1.34 1 1 C1 1.66 1 2.32 1 3 C0.34 3 -0.32 3 -1 3 C-0.67 2.01 -0.34 1.02 0 0 Z " fill="#DE7944" transform="translate(128,146)"/>
<path d="M0 0 C-2.70931747 1.80621165 -5.244456 3.09177661 -8.19921875 4.43359375 C-20.97226906 10.33174632 -32.77102094 16.49877591 -44 25 C-45 23 -45 23 -44.375 20.9375 C-43 19 -43 19 -40.5625 18.3125 C-39.716875 18.209375 -38.87125 18.10625 -38 18 C-37.01 17.67 -36.02 17.34 -35 17 C-35 16.34 -35 15.68 -35 15 C-34.01 15 -33.02 15 -32 15 C-32 14.34 -32 13.68 -32 13 C-29.69 12.34 -27.38 11.68 -25 11 C-25 10.34 -25 9.68 -25 9 C-23.9275 8.62875 -22.855 8.2575 -21.75 7.875 C-16.88514214 6.0799455 -12.39138012 3.66298457 -7.83203125 1.20703125 C-4.9444634 -0.02367008 -3.09676821 -0.25476155 0 0 Z " fill="#E28254" transform="translate(133,40)"/>
<path d="M0 0 C0.66 0 1.32 0 2 0 C2.02891949 4.29165262 2.04677118 8.58328036 2.0625 12.875 C2.07087891 14.09832031 2.07925781 15.32164062 2.08789062 16.58203125 C2.09272461 18.33193359 2.09272461 18.33193359 2.09765625 20.1171875 C2.10551147 21.73536377 2.10551147 21.73536377 2.11352539 23.38623047 C2 26 2 26 1 28 C-5.93 28 -12.86 28 -20 28 C-20 27.67 -20 27.34 -20 27 C-13.4 27 -6.8 27 0 27 C0 19.41 0 11.82 0 4 C-0.66 4 -1.32 4 -2 4 C-1.34 2.68 -0.68 1.36 0 0 Z " fill="#D37B4A" transform="translate(121,142)"/>
<path d="M0 0 C0.66 0 1.32 0 2 0 C2.02887512 3.64581687 2.04675585 7.29160463 2.0625 10.9375 C2.07087891 11.97841797 2.07925781 13.01933594 2.08789062 14.09179688 C2.09272461 15.57583008 2.09272461 15.57583008 2.09765625 17.08984375 C2.10551147 18.46450806 2.10551147 18.46450806 2.11352539 19.86694336 C2 22 2 22 1 23 C-1.14558827 23.08775605 -3.29404421 23.10695219 -5.44140625 23.09765625 C-6.74658203 23.09443359 -8.05175781 23.09121094 -9.39648438 23.08789062 C-10.7851569 23.07953401 -12.17382877 23.07106905 -13.5625 23.0625 C-14.95507656 23.05748666 -16.34765481 23.05292347 -17.74023438 23.04882812 C-21.1601987 23.03699434 -24.58007844 23.0205088 -28 23 C-28 22.67 -28 22.34 -28 22 C-18.76 21.67 -9.52 21.34 0 21 C0 14.07 0 7.14 0 0 Z " fill="#D47E4B" transform="translate(151,119)"/>
<path d="M0 0 C0.66 0.66 1.32 1.32 2 2 C3.96690374 2.67292501 3.96690374 2.67292501 6.125 3.125 C7.40375 3.41375 8.6825 3.7025 10 4 C9.34 5.65 8.68 7.3 8 9 C4.7 8.34 1.4 7.68 -2 7 C-2.33 5.68 -2.66 4.36 -3 3 C-1.5625 1.25 -1.5625 1.25 0 0 Z " fill="#ED7636" transform="translate(400,35)"/>
<path d="M0 0 C-0.33 0.66 -0.66 1.32 -1 2 C-3.44410827 2.28912012 -5.79716103 2.46780471 -8.25 2.5625 C-13.38827495 2.76193692 -13.38827495 2.76193692 -18.46484375 3.5234375 C-22.07424355 4.20193793 -25.6556521 4.10498349 -29.3125 4.0625 C-30.05306641 4.05798828 -30.79363281 4.05347656 -31.55664062 4.04882812 C-33.37112899 4.03712175 -35.18557534 4.01918898 -37 4 C-37 3.67 -37 3.34 -37 3 C-32.7093897 2.49065371 -28.41737379 1.99424636 -24.125 1.5 C-22.31902344 1.28537109 -22.31902344 1.28537109 -20.4765625 1.06640625 C-13.61471333 0.28326042 -6.90683975 -0.21540245 0 0 Z " fill="#DC7E4B" transform="translate(213,1)"/>
<path d="M0 0 C0.66 0 1.32 0 2 0 C3.4606285 2.64738916 4 3.89448334 4 7 C5.65 6.34 7.3 5.68 9 5 C9.03738281 5.60328125 9.07476562 6.2065625 9.11328125 6.828125 C9.56253341 12.99367772 9.56253341 12.99367772 13 18 C12.67 18.66 12.34 19.32 12 20 C-0 5.68299712 -0 5.68299712 0 0 Z " fill="#E1804B" transform="translate(3,147)"/>
<path d="M0 0 C0 1.32 0 2.64 0 4 C0.66 4.33 1.32 4.66 2 5 C1.34 6.32 0.68 7.64 0 9 C-2.31 8.67 -4.62 8.34 -7 8 C-7.99 9.485 -7.99 9.485 -9 11 C-9.99 10.67 -10.98 10.34 -12 10 C-10.38113585 8.32737283 -8.7547271 6.66204463 -7.125 5 C-6.22007813 4.071875 -5.31515625 3.14375 -4.3828125 2.1875 C-2 0 -2 0 0 0 Z " fill="#E57A3C" transform="translate(37,62)"/>
<path d="M0 0 C0.99 0.33 1.98 0.66 3 1 C-0.60604353 5.62558904 -4.41479459 9.19152354 -9.0625 12.75 C-9.67416016 13.23082031 -10.28582031 13.71164063 -10.91601562 14.20703125 C-13.82637974 16.46610307 -16.58983972 18.53728786 -20 20 C-19.8125 18.125 -19.8125 18.125 -19 16 C-17.34302621 15.30959426 -15.6744239 14.6469365 -14 14 C-12.29006566 12.3777546 -10.62652316 10.70586575 -9 9 C-3.85350318 4.42675159 -3.85350318 4.42675159 -1 3 C-0.67 2.01 -0.34 1.02 0 0 Z " fill="#735038" transform="translate(447,194)"/>
<path d="M0 0 C2.97 0 5.94 0 9 0 C10 4 10 4 10 7 C8.37276701 6.54965877 6.74826336 6.08944646 5.125 5.625 C4.22007813 5.36976563 3.31515625 5.11453125 2.3828125 4.8515625 C0 4 0 4 -2 2 C-1.34 2 -0.68 2 0 2 C0 1.34 0 0.68 0 0 Z " fill="#764725" transform="translate(100,234)"/>
<path d="M0 0 C0.99 0.33 1.98 0.66 3 1 C2.32517578 1.51433594 2.32517578 1.51433594 1.63671875 2.0390625 C-4.43493912 6.97912882 -8.96741901 12.80041981 -13.6796875 18.98828125 C-16 22 -16 22 -18 24 C-17.62278992 18.5933222 -15.91500215 16.61384813 -12 13 C-12 12.34 -12 11.68 -12 11 C-11.01 11 -10.02 11 -9 11 C-9 10.34 -9 9.68 -9 9 C-8.34 9 -7.68 9 -7 9 C-7 8.01 -7 7.02 -7 6 C-5.57421875 4.359375 -5.57421875 4.359375 -3.6875 2.75 C-3.07261719 2.20859375 -2.45773438 1.6671875 -1.82421875 1.109375 C-1.22222656 0.74328125 -0.62023437 0.3771875 0 0 Z " fill="#E38555" transform="translate(77,72)"/>
<path d="M0 0 C0.66 0.33 1.32 0.66 2 1 C-21.39286361 13.60779529 -21.39286361 13.60779529 -27 15 C-27.66 14.67 -28.32 14.34 -29 14 C-27.845 13.4225 -26.69 12.845 -25.5 12.25 C-24.41332031 11.70472656 -24.41332031 11.70472656 -23.3046875 11.1484375 C-21.79321158 10.39526136 -20.27767702 9.65016413 -18.7578125 8.9140625 C-18.05398438 8.57117188 -17.35015625 8.22828125 -16.625 7.875 C-15.65433594 7.40707031 -15.65433594 7.40707031 -14.6640625 6.9296875 C-12.8131087 5.99472451 -12.8131087 5.99472451 -11 4 C-10.01 4 -9.02 4 -8 4 C-5.88399566 3.02370493 -3.87865306 1.90495337 -1.83984375 0.77734375 C-1.23269531 0.52082031 -0.62554687 0.26429688 0 0 Z " fill="#78543B" transform="translate(410,223)"/>
<path d="M0 0 C1.62566606 0.47690204 3.25051311 0.95659666 4.875 1.4375 C5.77992187 1.70433594 6.68484375 1.97117188 7.6171875 2.24609375 C10 3 10 3 12 4 C12.33 3.01 12.66 2.02 13 1 C13 1.99 13 2.98 13 4 C13.72445312 4.18175781 14.44890625 4.36351562 15.1953125 4.55078125 C20.46799057 5.92167755 25.25483705 7.30679941 30 10 C26.19355099 11.26881634 24.81065879 10.49988615 21.0546875 9.19921875 C19.31638672 8.59883789 19.31638672 8.59883789 17.54296875 7.98632812 C16.33253906 7.55771484 15.12210938 7.12910156 13.875 6.6875 C12.65683594 6.27048828 11.43867187 5.85347656 10.18359375 5.42382812 C1.12976507 2.25953014 1.12976507 2.25953014 0 0 Z " fill="#765239" transform="translate(98,237)"/>
<path d="M0 0 C6.35583327 0.86670454 12.67551301 1.93034128 19 3 C16 5 16 5 13 5 C12.67 5.66 12.34 6.32 12 7 C8.10806661 6.42341728 5.95460159 4.5000475 3 2 C2.01 1.34 1.02 0.68 0 0 Z " fill="#DF7B41" transform="translate(87,177)"/>
<path d="M0 0 C0.721875 0.12375 1.44375 0.2475 2.1875 0.375 C1.60097656 0.61734375 1.01445312 0.8596875 0.41015625 1.109375 C-4.65564022 3.993941 -8.01266417 9.77532834 -10.5625 14.875 C-10.975 15.7 -11.3875 16.525 -11.8125 17.375 C-12.8025 17.705 -13.7925 18.035 -14.8125 18.375 C-16.03119929 20.87947516 -16.03119929 20.87947516 -16.8125 23.375 C-17.4725 23.045 -18.1325 22.715 -18.8125 22.375 C-17.08709564 19.83070845 -15.35733251 17.28956833 -13.625 14.75 C-13.14224609 14.03714844 -12.65949219 13.32429688 -12.16210938 12.58984375 C-3.91379437 0.52183925 -3.91379437 0.52183925 0 0 Z " fill="#705037" transform="translate(252.8125,88.625)"/>
<path d="M0 0 C12.66970387 3.07517084 12.66970387 3.07517084 18 5 C18 5.33 18 5.66 18 6 C17.05125 6.309375 16.1025 6.61875 15.125 6.9375 C12.13919592 7.87394742 12.13919592 7.87394742 10 9 C10 8.01 10 7.02 10 6 C8.02 5.34 6.04 4.68 4 4 C4 3.34 4 2.68 4 2 C2.68 2 1.36 2 0 2 C0 1.34 0 0.68 0 0 Z " fill="#E37C40" transform="translate(352,15)"/>
<path d="M0 0 C0.33 0.66 0.66 1.32 1 2 C-1.88151211 4.88151211 -4.90900786 5.96298625 -8.6875 7.5 C-12.068459 8.61166533 -12.068459 8.61166533 -13 11 C-14.84765625 11.6328125 -14.84765625 11.6328125 -17.0625 12.125 C-17.79597656 12.29257812 -18.52945313 12.46015625 -19.28515625 12.6328125 C-19.85105469 12.75398438 -20.41695312 12.87515625 -21 13 C-18.92819031 10.77532899 -16.93386358 9.24257599 -14.27734375 7.7734375 C-13.22256836 7.185625 -13.22256836 7.185625 -12.14648438 6.5859375 C-11.41751953 6.18632813 -10.68855469 5.78671875 -9.9375 5.375 C-8.83825195 4.76398437 -8.83825195 4.76398437 -7.71679688 4.140625 C-2.55133929 1.27566964 -2.55133929 1.27566964 0 0 Z " fill="#E2824B" transform="translate(79,33)"/>
<path d="M0 0 C0.556875 0.185625 1.11375 0.37125 1.6875 0.5625 C4.399133 1.07551165 6.34371039 0.6640724 9 0 C9 0.66 9 1.32 9 2 C9.99 2.33 10.98 2.66 12 3 C10.58461283 3.33872513 9.16762037 3.67074624 7.75 4 C6.96109375 4.185625 6.1721875 4.37125 5.359375 4.5625 C3 5 3 5 -1 5 C-0.67 3.35 -0.34 1.7 0 0 Z " fill="#E77B46" transform="translate(161,26)"/>
<path d="M0 0 C2.64 0.33 5.28 0.66 8 1 C8 1.66 8 2.32 8 3 C9.43671568 3.64757625 10.87440416 4.29299453 12.3125 4.9375 C13.51326172 5.47697266 13.51326172 5.47697266 14.73828125 6.02734375 C17.09489608 7.07846041 17.09489608 7.07846041 20 8 C20.33 8.99 20.66 9.98 21 11 C15.99886406 9.51991304 11.67084403 7.3681664 7.125 4.875 C6.43664062 4.50246094 5.74828125 4.12992188 5.0390625 3.74609375 C3.35705202 2.83500474 1.67819564 1.91809685 0 1 C0 0.67 0 0.34 0 0 Z " fill="#74553D" transform="translate(66,222)"/>
<path d="M0 0 C0.598125 0.33 1.19625 0.66 1.8125 1 C4.05386471 2.20787988 4.05386471 2.20787988 7 2 C7.99 2 8.98 2 10 2 C10 2.66 10 3.32 10 4 C10.66 4.33 11.32 4.66 12 5 C12.72159424 6.64363134 13.39351421 8.31050386 14 10 C8.97619887 8.43006215 4.9530017 5.39884258 1 2 C0.67 1.34 0.34 0.68 0 0 Z " fill="#EB7D48" transform="translate(24,175)"/>
<path d="M0 0 C10.24638634 0.46428938 19.97533762 1.92997231 30 4 C30 4.33 30 4.66 30 5 C28.10448978 5.05441656 26.2085208 5.09298035 24.3125 5.125 C23.25675781 5.14820313 22.20101563 5.17140625 21.11328125 5.1953125 C17.91505457 4.99467093 15.92767277 4.22889968 13 3 C10.73882929 2.57056312 8.46641435 2.19727072 6.1875 1.875 C4.44533203 1.62363281 4.44533203 1.62363281 2.66796875 1.3671875 C1.78753906 1.24601563 0.90710938 1.12484375 0 1 C0 0.67 0 0.34 0 0 Z " fill="#D87E4D" transform="translate(297,4)"/>
<path d="M0 0 C0.33 0.99 0.66 1.98 1 3 C0.67 3.66 0.34 4.32 0 5 C-9.24 5 -18.48 5 -28 5 C-28 4.67 -28 4.34 -28 4 C-27.29391602 3.97494385 -26.58783203 3.9498877 -25.86035156 3.92407227 C-22.65672491 3.80792631 -19.45337882 3.68528397 -16.25 3.5625 C-15.13882812 3.52318359 -14.02765625 3.48386719 -12.8828125 3.44335938 C-11.27792969 3.38051758 -11.27792969 3.38051758 -9.640625 3.31640625 C-8.65610352 3.27974854 -7.67158203 3.24309082 -6.65722656 3.20532227 C-4.31076449 3.02401258 -2.25281588 2.65668181 0 2 C0 1.34 0 0.68 0 0 Z " fill="#6A4933" transform="translate(340,145)"/>
<path d="M0 0 C4.10228779 1.43992551 7.30398117 3.44493408 10.8125 6 C12.27623047 7.051875 12.27623047 7.051875 13.76953125 8.125 C14.50558594 8.74375 15.24164063 9.3625 16 10 C16 10.66 16 11.32 16 12 C11.25 11.25 11.25 11.25 9 9 C9.33 8.67 9.66 8.34 10 8 C9.278125 7.59007812 8.55625 7.18015625 7.8125 6.7578125 C6.4203125 5.94957031 6.4203125 5.94957031 5 5.125 C4.071875 4.59132813 3.14375 4.05765625 2.1875 3.5078125 C1.465625 3.01023438 0.74375 2.51265625 0 2 C0 1.34 0 0.68 0 0 Z " fill="#DB8C5F" transform="translate(420,45)"/>
<path d="M0 0 C0.66 0.33 1.32 0.66 2 1 C0.71053695 2.79325326 -0.58164352 4.58455278 -1.875 6.375 C-2.59429687 7.37273437 -3.31359375 8.37046875 -4.0546875 9.3984375 C-6 12 -6 12 -8 14 C-11 14.3125 -11 14.3125 -14 14 C-14.66 13.01 -15.32 12.02 -16 11 C-15.01 11 -14.02 11 -13 11 C-13 11.66 -13 12.32 -13 13 C-10.17917992 12.63963092 -9.13337891 12.14125784 -7.1484375 10.0390625 C-6.56320313 9.24242187 -5.97796875 8.44578125 -5.375 7.625 C-4.78460938 6.83351562 -4.19421875 6.04203125 -3.5859375 5.2265625 C-2.36017427 3.50566339 -1.17197916 1.75796874 0 0 Z " fill="#78553A" transform="translate(233,147)"/>
<path d="M0 0 C4.79278967 0.58448654 8.5944123 2.06772469 13 4 C15.31948215 4.74295913 17.64464791 5.37511067 20 6 C20 6.33 20 6.66 20 7 C12.50559651 6.5003731 6.04349737 4.56235522 -1 2 C-0.67 1.34 -0.34 0.68 0 0 Z " fill="#DD8051" transform="translate(47,188)"/>
<path d="M0 0 C0 0.33 0 0.66 0 1 C-6.5705166 1.24794402 -12.56971459 0.32388229 -19 -1 C-19 -1.33 -19 -1.66 -19 -2 C-11.69937859 -3.11388158 -6.72976216 -3.17441612 0 0 Z " fill="#DC7C46" transform="translate(86,197)"/>
<path d="M0 0 C4.95 0 9.9 0 15 0 C14.67 0.99 14.34 1.98 14 3 C11.8535247 2.88655624 9.70779408 2.75893655 7.5625 2.625 C6.36753906 2.55539063 5.17257813 2.48578125 3.94140625 2.4140625 C2.97074219 2.27742187 2.00007813 2.14078125 1 2 C0.67 1.34 0.34 0.68 0 0 Z " fill="#D87E4B" transform="translate(107,181)"/>
<path d="M0 0 C0.66 0.33 1.32 0.66 2 1 C-1.08453491 7.01893759 -4.43123874 12.00623769 -9 17 C-9.66 16.67 -10.32 16.34 -11 16 C-10.45730469 15.26394531 -9.91460937 14.52789062 -9.35546875 13.76953125 C-8.64003906 12.79371094 -7.92460937 11.81789062 -7.1875 10.8125 C-6.47980469 9.84957031 -5.77210938 8.88664063 -5.04296875 7.89453125 C-3.22731563 5.3220667 -1.57792699 2.72279516 0 0 Z " fill="#745238" transform="translate(425,162)"/>
<path d="M0 0 C2 1 2 1 3.10546875 3.87109375 C3.46253906 5.04800781 3.81960938 6.22492188 4.1875 7.4375 C4.55230469 8.61183594 4.91710937 9.78617188 5.29296875 10.99609375 C6 14 6 14 5 16 C2.13101167 12.7567958 1.62886455 10.22237628 1 6 C0.34 5.01 -0.32 4.02 -1 3 C-0.67 2.01 -0.34 1.02 0 0 Z " fill="#6E4931" transform="translate(468,120)"/>
<path d="M0 0 C-0.66 1.32 -1.32 2.64 -2 4 C-2.86625 3.979375 -3.7325 3.95875 -4.625 3.9375 C-7.85903648 3.99738956 -10.82799897 4.39580933 -14 5 C-11.75043698 2.75043698 -9.93676737 1.99489035 -7 0.8125 C-6.113125 0.44769531 -5.22625 0.08289063 -4.3125 -0.29296875 C-2 -1 -2 -1 0 0 Z " fill="#E17F48" transform="translate(103,24)"/>
<path d="M0 0 C0.70125 0.721875 1.4025 1.44375 2.125 2.1875 C4.92770745 4.99823813 7.92262792 7.49516226 11 10 C9.25 10.6875 9.25 10.6875 7 11 C3.34256947 9.06371325 2.25211716 6.85266819 1 3 C0.67 2.01 0.34 1.02 0 0 Z " fill="#DC7F4E" transform="translate(56,155)"/>
<path d="M0 0 C0.66 0.33 1.32 0.66 2 1 C-0.21689838 5.43379675 -2.77728219 7.46636932 -7 10 C-8 9 -8 9 -8.0625 5.9375 C-8.041875 4.968125 -8.02125 3.99875 -8 3 C-6.02 3.99 -6.02 3.99 -4 5 C-2.68 3.35 -1.36 1.7 0 0 Z " fill="#734E36" transform="translate(224,125)"/>
<path d="M0 0 C1.98 0.66 3.96 1.32 6 2 C3.37575342 3.74949772 1.44272784 4.65389981 -1.5 5.625 C-2.2734375 5.88539062 -3.046875 6.14578125 -3.84375 6.4140625 C-6 7 -6 7 -9 7 C-9 6.34 -9 5.68 -9 5 C-7.88625 4.731875 -6.7725 4.46375 -5.625 4.1875 C-1.78159049 3.34190981 -1.78159049 3.34190981 0 0 Z " fill="#E37F4D" transform="translate(144,32)"/>
<path d="M0 0 C0.99 0.33 1.98 0.66 3 1 C2.01 1.33 1.02 1.66 0 2 C0 1.34 0 0.68 0 0 Z M-5 4 C-4.01 4.33 -3.02 4.66 -2 5 C-4.85276137 7.93200474 -7.65079784 10.64315404 -11 13 C-11.66 12.67 -12.32 12.34 -13 12 C-10.36 9.36 -7.72 6.72 -5 4 Z " fill="#6D4930" transform="translate(418,175)"/>
<path d="M0 0 C0.33 0 0.66 0 1 0 C0.67 2.97 0.34 5.94 0 9 C-0.99 9.33 -1.98 9.66 -3 10 C-3 10.66 -3 11.32 -3 12 C-3.66 12 -4.32 12 -5 12 C-3.68938409 7.76570244 -2.05643741 3.92592596 0 0 Z " fill="#E6814C" transform="translate(10,92)"/>
<path d="M0 0 C2.97 0.33 5.94 0.66 9 1 C6.44931155 3.35448165 5.28982642 3.98327924 1.75 4.1875 C0.8425 4.125625 -0.065 4.06375 -1 4 C-0.67 2.68 -0.34 1.36 0 0 Z " fill="#E47A43" transform="translate(327,9)"/>
<path d="M0 0 C3.59391114 1.33488128 6.75490696 2.96022723 10 5 C9.01 5.495 9.01 5.495 8 6 C7.01 5.67 6.02 5.34 5 5 C4.01 5.495 4.01 5.495 3 6 C2.34 5.67 1.68 5.34 1 5 C0.375 2.4375 0.375 2.4375 0 0 Z " fill="#E37F49" transform="translate(410,39)"/>
<path d="M0 0 C4.50802601 1.25805377 7.4912812 2.90407165 11 6 C8.36 5.67 5.72 5.34 3 5 C2.67 4.01 2.34 3.02 2 2 C1.34 2 0.68 2 0 2 C0 1.34 0 0.68 0 0 Z " fill="#E17C4B" transform="translate(399,33)"/>
<path d="M0 0 C7.26153846 -0.49230769 7.26153846 -0.49230769 11 2 C11.66 2.66 12.32 3.32 13 4 C11.20676747 3.71812064 9.41542874 3.4241719 7.625 3.125 C6.62726563 2.96257812 5.62953125 2.80015625 4.6015625 2.6328125 C2 2 2 2 0 0 Z " fill="#714E36" transform="translate(130,248)"/>
<path d="M0 0 C-1.4375 1.5625 -1.4375 1.5625 -4 3 C-7.05380927 2.96846324 -9.99653222 2.53266629 -13 2 C-13 1.67 -13 1.34 -13 1 C-11.39796533 0.63631108 -9.79325797 0.28438048 -8.1875 -0.0625 C-7.29417969 -0.25972656 -6.40085937 -0.45695313 -5.48046875 -0.66015625 C-3 -1 -3 -1 0 0 Z " fill="#6A462E" transform="translate(302,236)"/>
<path d="M0 0 C-2.38573379 1.89213369 -4.07175348 3.02391783 -7 4 C-7.73323796 6.01508358 -7.73323796 6.01508358 -8 8 C-8 5.36 -8 2.72 -8 0 C-5.13822943 -1.43088528 -3.06624227 -0.59991697 0 0 Z " fill="#6C4930" transform="translate(171,90)"/>
<path d="M0 0 C0.66 0.33 1.32 0.66 2 1 C-0.475 4.465 -0.475 4.465 -3 8 C-3.66 7.67 -4.32 7.34 -5 7 C-5 5.68 -5 4.36 -5 3 C-3.35 2.67 -1.7 2.34 0 2 C0 1.34 0 0.68 0 0 Z " fill="#754F36" transform="translate(239,138)"/>
<path d="M0 0 C2.375 0.6875 2.375 0.6875 5 2 C6.51700596 4.88231132 7.29535173 7.82908279 8 11 C5.0843836 7.45960866 2.49872182 3.8373228 0 0 Z " fill="#754F33" transform="translate(207,144)"/>
<path d="M0 0 C5.94 1.485 5.94 1.485 12 3 C12 3.33 12 3.66 12 4 C9.36 4 6.72 4 4 4 C4 3.34 4 2.68 4 2 C2.68 2 1.36 2 0 2 C0 1.34 0 0.68 0 0 Z " fill="#DD7F50" transform="translate(352,15)"/>
<path d="M0 0 C2.31 0.33 4.62 0.66 7 1 C7.33 2.32 7.66 3.64 8 5 C4.62496331 3.8141763 2.35277269 2.72426311 0 0 Z " fill="#DF7F4D" transform="translate(30,180)"/>
<path d="M0 0 C0.66 0.33 1.32 0.66 2 1 C0.02 3.97 -1.96 6.94 -4 10 C-5 6 -5 6 -4.00390625 4.296875 C-2.66927083 2.86458333 -1.33463542 1.43229167 0 0 Z " fill="#765337" transform="translate(246,128)"/>
<path d="M0 0 C0.33 0.66 0.66 1.32 1 2 C-0.65 3.98 -2.3 5.96 -4 8 C-4.99 7.67 -5.98 7.34 -7 7 C-4.69 4.69 -2.38 2.38 0 0 Z " fill="#DD8354" transform="translate(32,65)"/>
<path d="M0 0 C2.75 1.375 2.75 1.375 5 3 C2.21176345 4.0326802 1.1322726 4.04509293 -1.75 3.0625 C-2.4925 2.711875 -3.235 2.36125 -4 2 C-2.3125 0.8125 -2.3125 0.8125 0 0 Z " fill="#DF7A3E" transform="translate(426,50)"/>
<path d="M0 0 C4.75 0.75 4.75 0.75 7 3 C4.36 3.33 1.72 3.66 -1 4 C-0.67 2.68 -0.34 1.36 0 0 Z " fill="#E57C46" transform="translate(378,24)"/>
</svg>
